<svg xmlns="http://www.w3.org/2000/svg" version="1.1" xmlns:xlink="http://www.w3.org/1999/xlink" xmlns:svgjs="http://svgjs.dev/svgjs" viewBox="0 0 800 800"><defs><filter id="uuunion-blur" x="-100%" y="-100%" width="400%" height="400%" color-interpolation-filters="sRGB">
        <feGaussianBlur in="SourceGraphic" stdDeviation="7.5 0" result="blur"></feGaussianBlur>
        <feDropShadow stdDeviation="12.307692307692308" in="blur" dx="10" dy="10" flood-color="hsl(197, 59%, 71%)" flood-opacity="0.25" x="0%" y="0%" width="100%" height="100%"></feDropShadow>
      </filter><filter id="uuunion-blur2" x="-100%" y="-100%" width="400%" height="400%" color-interpolation-filters="sRGB">
        <feGaussianBlur in="SourceGraphic" stdDeviation="7.5 0" result="blur"></feGaussianBlur>
        <feDropShadow stdDeviation="12.307692307692308" in="blur" dx="-10" dy="-10" flood-color="hsl(197, 59%, 71%)" flood-opacity="0.25" x="0%" y="0%" width="100%" height="100%"></feDropShadow>
      </filter><linearGradient gradientTransform="rotate(0, 0.5, 0.5)" x1="50%" y1="0%" x2="50%" y2="100%" id="uuunion-grad"><stop stop-color="hsl(0, 0%, 100%)" offset="10%"></stop><stop stop-color="hsl(197, 59%, 71%)" offset="90%"></stop></linearGradient><linearGradient gradientTransform="rotate(135, 0.5, 0.5)" x1="50%" y1="0%" x2="50%" y2="100%" id="uuunion-grad2"><stop stop-color="hsl(0, 0%, 100%)" offset="25%"></stop><stop stop-color="hsl(197, 59%, 71%)" offset="100%"></stop></linearGradient><linearGradient gradientTransform="rotate(333, 0.5, 0.5)" x1="50%" y1="0%" x2="50%" y2="100%" id="uuunion-grad3"><stop stop-color="hsl(0, 0%, 100%)" offset="0%"></stop><stop stop-color="hsl(197, 59%, 71%)" offset="75%"></stop></linearGradient></defs><path d="M-78.96 -85.76Q-64.33 -82.48 -49.7 -78.75 -35.07 -75.24 -20.44 -72.59 -5.82 -71.28 8.8 -71.55 23.43 -73.35 38.06 -76.34 52.69 -80 67.31 -83.66 81.94 -86.65 96.57 -88.44 111.2 -88.7 125.83 -87.39 140.45 -84.74 155.08 -81.23 169.71 -77.5 184.34 -74.22 198.97 -71.98 213.59 -71.2 228.22 -72 242.85 -74.25 257.48 -77.54 272.11 -81.28 286.73 -84.78 301.36 -87.41 315.99 -88.71 330.62 -88.43 345.25 -86.62 359.87 -83.62 374.5 -79.96 389.13 -76.3 403.76 -73.32 418.39 -71.54 433.01 -71.29 447.64 -72.62 462.27 -75.28 476.9 -78.79 491.53 -82.52 506.15 -85.8 520.78 -88.02 535.41 -88.79 550.04 -87.98 564.67 -85.71 579.29 -82.42 593.92 -78.68 608.55 -75.18 623.18 -72.56 637.81 -71.28 652.43 -71.57 667.06 -73.39 681.69 -76.4 696.32 -80.07 710.95 -83.72 725.57 -86.69 740.2 -88.46 754.83 -88.69 769.46 -87.35 784.09 -84.68 798.71 -81.17 813.34 -77.43 827.97 -74.17 842.6 -71.95 857.23 -71.2 855.9 -55.97 857.62 -40.75 862.16 -25.52 868.95 -10.3 877.13 4.92 885.68 20.14 893.51 35.37 899.63 50.59 903.28 65.82 903.98 81.04 901.66 96.27 896.61 111.49 889.46 126.72 881.11 141.94 872.62 157.17 865.07 172.39 859.4 187.62 856.32 202.84 856.24 218.07 859.15 233.29 864.69 248.52 872.17 263.74 880.63 278.97 889.01 294.19 896.26 309.42 901.45 324.64 903.93 339.87 903.4 355.09 899.91 370.32 893.9 385.54 886.15 400.77 877.61 415.99 869.38 431.22 862.48 446.44 857.8 461.67 855.92 476.89 857.07 492.12 861.12 507.34 867.55 522.57 875.55 537.79 884.11 553.02 892.15 568.24 898.66 583.47 902.81 598.69 904.08 613.92 902.32 629.14 897.73 644.37 890.91 659.59 882.71 674.82 874.16 690.04 866.36 705.27 860.27 720.49 856.67 735.72 856.02 750.94 858.39 766.17 863.49 781.39 870.67 796.62 879.03 811.84 887.51 827.07 895.04 842.29 900.67 857.52 903.7 872.74 903.73 887.97 900.76 903.19 885.42 901.19 870.09 895.36 854.75 886.74 839.41 876.91 824.07 867.63 808.73 860.59 793.39 857.06 778.05 857.68 762.71 862.33 747.37 870.18 732.03 879.8 716.69 889.46 701.35 897.41 686.01 902.2 670.67 902.98 655.33 899.6 640 892.68 624.66 883.46 609.32 873.61 593.98 864.92 578.64 858.95 563.3 856.8 547.96 858.83 532.62 864.7 517.28 873.33 501.94 883.17 486.6 892.43 471.26 899.45 455.92 902.94 440.58 902.29 425.24 897.6 409.91 889.73 394.57 880.1 379.23 870.45 363.89 862.52 348.55 857.76 333.21 857.02 317.87 860.43 302.53 867.39 287.19 876.62 271.85 886.46 256.51 895.14 241.17 901.07 225.83 903.19 210.49 901.12 195.15 895.23 179.82 886.58 164.48 876.74 149.14 867.48 133.8 860.5 118.46 857.04 103.12 857.73 87.78 862.45 72.44 870.34 57.1 879.98 41.76 889.62 26.42 897.52 11.08 902.25 -4.25 902.96 -19.59 899.51 -34.92 892.53 -50.26 883.28 -65.6 873.44 -80.94 864.79 -81.08 849.93 -81.08 835.08 -80.94 820.23 -80.68 805.38 -80.34 790.52 -79.95 775.67 -79.57 760.82 -79.24 745.97 -79.01 731.11 -78.9 716.26 -78.93 701.41 -79.09 686.56 -79.37 671.7 -79.73 656.85 -80.12 642 -80.49 627.15 -80.8 612.29 -81.01 597.44 -81.09 582.59 -81.04 567.74 -80.85 552.88 -80.55 538.03 -80.18 523.18 -79.79 508.33 -79.43 493.47 -79.13 478.62 -78.95 463.77 -78.9 448.92 -78.98 434.06 -79.2 419.21 -79.51 404.36 -79.89 389.51 -80.28 374.65 -80.63 359.8 -80.9 344.95 -81.06 330.1 -81.09 315.24 -80.97 300.39 -80.74 285.54 -80.41 270.69 -80.02 255.83 -79.64 240.98 -79.3 226.13 -79.04 211.28 -78.91 196.42 -78.91 181.57 -79.05 166.72 -79.31 151.87 -79.66 137.01 -80.05 122.16 -80.43 107.31 -80.75 92.46 -80.98 77.6 -81.09 62.75 -81.06 47.9 -80.89 33.05 -80.61 18.19 -80.25 3.34 -79.86 -11.5 -79.49 -26.35 -79.18 -41.21 -78.97 -56.06 -78.9 -70.91 -78.96 -85.76" fill="url(#uuunion-grad)"></path><path d="M-78.96 -85.76Q-78.9 -70.91 -78.97 -56.06 -79.18 -41.21 -79.49 -26.35 -79.86 -11.5 -80.25 3.34 -80.61 18.19 -80.89 33.05 -81.06 47.9 -81.09 62.75 -80.98 77.6 -80.75 92.46 -80.43 107.31 -80.05 122.16 -79.66 137.01 -79.31 151.87 -79.05 166.72 -78.91 181.57 -78.91 196.42 -79.04 211.28 -79.3 226.13 -79.64 240.98 -80.02 255.83 -80.41 270.69 -80.74 285.54 -80.97 300.39 -81.09 315.24 -81.06 330.1 -80.9 344.95 -80.63 359.8 -80.28 374.65 -79.89 389.51 -69.91 393.34 -59.94 397.71 -49.96 402.26 -39.99 406.63 -30.02 410.47 -20.04 413.45 -1.35 415.82 1.88 415.97 14.52 408.31 27.26 398.85 40.08 388.01 52.98 376.38 65.95 364.64 78.95 353.48 91.97 343.5 104.99 335.16 117.99 328.7 130.93 324.12 143.79 321.19 156.56 319.47 169.2 318.39 181.71 317.28 194.06 315.51 206.25 312.53 218.27 307.94 230.12 301.56 241.81 293.42 253.35 283.79 264.74 273.1 276.02 261.93 287.21 250.9 298.34 240.59 309.44 231.52 320.55 224.01 331.71 218.2 342.95 214.01 354.31 211.16 365.83 209.22 377.54 207.62 389.48 205.78 401.66 203.16 414.12 199.31 426.86 193.95 439.89 187 453.22 178.55 466.83 168.92 480.71 158.53 494.84 147.92 509.19 137.64 523.73 128.18 538.4 119.93 553.16 113.12 567.96 107.81 582.75 103.84 597.46 100.91 612.05 98.6 626.45 96.4 640.61 93.8 654.48 90.35 668.02 85.72 681.19 79.73 693.97 72.37 706.32 63.79 718.24 54.31 729.73 44.35 740.79 34.38 751.44 24.86 761.72 16.2 771.66 8.67 781.32 2.43 790.74 -2.56 800 -6.47 791.09 -23.8 783.71 -41.13 779.12 -58.46 778.1 -75.79 780.82 -93.12 786.83 -110.45 795.09 -127.78 804.19 -145.11 789.21 -147.14 774.23 -147.89 759.25 -147.23 744.26 -145.28 729.28 -142.38 714.3 -139.06 699.32 -135.9 684.34 -133.48 669.36 -132.22 654.38 -132.34 639.4 -133.84 624.42 -136.43 609.44 -139.67 594.46 -142.96 579.48 -145.72 564.49 -147.46 549.51 -147.86 534.53 -146.86 519.55 -144.64 504.57 -141.58 489.59 -138.24 474.61 -135.22 459.63 -133.04 444.65 -132.11 429.67 -132.59 414.69 -134.39 399.71 -137.19 384.72 -140.5 369.74 -143.71 354.76 -146.26 339.78 -147.69 324.8 -147.74 309.82 -146.41 294.84 -143.94 279.86 -140.76 264.88 -137.44 249.9 -134.58 234.92 -132.69 219.94 -132.1 204.95 -132.92 189.97 -135.01 174.99 -137.99 160.01 -141.32 145.03 -144.42 130.05 -146.73 115.07 -147.83 100.09 -147.54 85.11 -145.9 70.13 -143.2 55.15 -139.93 40.17 -136.67 25.19 -134.01 10.2 -132.41 -4.77 -132.17 -19.75 -133.33 -34.73 -135.68 -49.71 -138.8 -64.69 -142.13 -79.67 -145.08 -94.65 -147.13 -109.63 -147.89 -124.61 -147.25 -133.83 -132.97 -115.96 -118.18 -106.57 -110.94 -97.27 -103.11 -88.07 -94.71 -78.96 -85.76" fill="url(#uuunion-grad2)" filter="url(#uuunion-blur)"></path><path d="M797.82 389.63Q807.79 393.48 817.77 397.87 827.74 402.42 837.72 406.78 847.69 410.59 857.66 413.54 868.51 423.31 862.48 446.44 857.8 461.67 855.92 476.89 857.07 492.12 861.12 507.34 867.55 522.57 875.55 537.79 884.11 553.02 892.15 568.24 898.66 583.47 902.81 598.69 904.08 613.92 902.32 629.14 897.73 644.37 890.91 659.59 882.71 674.82 874.16 690.04 866.36 705.27 860.27 720.49 856.67 735.72 856.02 750.94 858.39 766.17 863.49 781.39 870.67 796.62 879.03 811.84 887.51 827.07 895.04 842.29 900.67 857.52 903.7 872.74 903.73 887.97 900.76 903.19 886.69 901.51 872.61 896.55 858.53 889.05 844.46 880.17 830.38 871.27 816.3 863.7 802.22 858.61 788.15 856.8 774.07 858.52 759.99 863.52 745.92 871.04 731.84 879.93 717.76 888.82 703.69 896.37 689.61 901.42 675.53 903.19 661.45 901.43 647.38 896.39 633.3 888.84 619.22 879.95 605.15 871.06 591.07 863.54 576.99 858.53 562.92 856.8 548.84 858.61 534.76 863.68 520.68 871.25 506.61 880.15 492.53 889.03 478.45 896.53 464.38 901.5 450.3 903.19 436.22 901.34 422.14 896.23 408.07 888.64 393.99 879.72 379.91 870.85 365.84 863.38 351.76 858.44 337.68 856.8 323.61 858.69 309.53 863.84 295.45 871.46 281.37 880.38 267.3 889.24 253.22 896.69 239.14 901.59 225.07 903.19 210.99 901.25 196.91 896.07 182.84 888.43 168.76 879.5 154.68 870.65 140.6 863.22 126.53 858.36 112.45 856.8 98.37 858.78 84.3 864 70.22 871.67 56.14 880.6 42.07 889.44 27.99 896.84 6.92 897.35 -0.02 882.89 -0.04 872.74 -0.11 862.59 -0.22 852.44 -0.39 842.29 -0.44 827.06 0.19 822 12.56 814.27 24.83 803.98 37.01 791.65 49.1 778.06 61.12 764.15 73.09 750.89 85.03 739.15 96.96 729.6 108.9 722.64 120.88 718.35 132.93 716.44 145.06 716.36 157.3 717.3 169.68 718.36 182.2 718.62 194.88 717.27 207.73 713.7 220.75 707.59 233.95 698.96 247.31 688.13 260.81 675.69 274.45 662.43 288.2 649.25 302.03 637.01 315.91 626.46 329.81 618.12 343.68 612.24 357.49 608.74 371.2 607.25 384.78 607.17 398.18 607.69 411.37 607.97 424.32 607.18 437.02 604.65 449.43 599.92 461.55 592.84 473.37 583.52 484.9 572.38 496.15 560.04 507.12 547.29 517.86 534.95 528.38 523.77 538.74 514.37 548.97 507.12 559.13 502.13 569.27 499.2 579.44 497.92 589.7 497.62 600.12 497.56 610.74 496.96 621.63 495.1 632.82 491.46 644.35 485.72 656.28 477.85 668.62 468.06 681.38 456.83 694.59 444.8 708.23 432.7 722.29 421.26 736.76 411.14 751.59 402.81 766.75 396.49 790 390.91 797.82 389.63" fill="url(#uuunion-grad3)" filter="url(#uuunion-blur2)"></path></svg>